<svg width="156" height="137" viewBox="0 0 156 137" fill="none" xmlns="http://www.w3.org/2000/svg">
  <path d="M24.8266 131.704C21.8266 131.704 19.3466 131.504 17.4666 131.104C15.3366 130.654 13.6166 129.804 12.3566 128.574C11.0766 127.324 10.2166 125.624 9.78656 123.524C9.41656 121.704 9.22656 119.324 9.22656 116.474V75.5938H43.4366C46.9466 75.5938 49.7966 78.4437 49.7966 81.9537V116.474C49.7966 119.314 49.6066 121.684 49.2366 123.524C48.8066 125.624 47.9466 127.314 46.6666 128.564C45.4066 129.794 43.6866 130.644 41.5566 131.094C39.6666 131.494 37.1966 131.694 34.1966 131.694H24.8266V131.704ZM20.0466 116.484C20.0466 117.704 20.1066 118.694 20.2366 119.404C20.3166 119.894 20.4666 120.264 20.6766 120.504C20.7666 120.614 21.0066 120.804 21.6066 120.934C22.3566 121.104 23.4066 121.184 24.7466 121.184H34.2665C35.6065 121.184 36.6565 121.104 37.3965 120.934C37.9965 120.804 38.2366 120.604 38.3266 120.504C38.5366 120.264 38.6866 119.884 38.7766 119.404C38.9066 118.684 38.9666 117.694 38.9666 116.474V86.1137H20.0466V116.474V116.484ZM55.9266 136.064V82.8838C55.9266 77.7838 58.1866 75.6038 63.4966 75.6038H75.4666V83.8438H69.7665C67.8465 83.8438 66.7266 85.1637 66.7266 86.9537V136.064H55.9266Z" fill="#FFFFFF"/>
  <path d="M107.011 60.45C104.301 60.45 102.071 60.2 100.381 59.7C98.4907 59.15 97.0107 58.23 95.9807 56.97C94.9907 55.76 94.3406 54.22 94.0406 52.39C93.7706 50.8 93.6406 48.89 93.6406 46.71V36.32H104.461V46.34C104.461 47.41 104.501 48.25 104.591 48.85C104.661 49.4 104.801 49.66 104.871 49.77C104.911 49.82 105.021 49.87 105.111 49.89C105.341 49.96 105.881 50.07 106.931 50.07H146.561V60.44H107.001L107.011 60.45ZM135.721 44.09V7.28C135.721 2.18 137.981 0 143.291 0H155.261V8.23999H149.561C147.641 8.23999 146.521 9.52 146.521 11.92V44.08H135.721V44.09Z" fill="#FFFFFF"/>
  <path d="M93.5514 30.65L90.3514 9.72H84.8714C82.3914 9.72 80.2314 7.98 79.8614 5.67C79.6314 4.24 80.0214 2.79999 80.9514 1.70999C81.8814 0.619991 83.2314 0 84.6614 0H98.7114L101.911 20.93H118.441L120.471 9.72H109.701C107.221 9.72 105.061 7.98 104.691 5.67C104.461 4.24 104.861 2.79999 105.781 1.70999C106.711 0.619991 108.061 0 109.481 0H127.051C129.691 0 131.681 2.39 131.211 4.98L126.561 30.66H93.5514V30.65Z" fill="#FFFFFF"/>
  <path d="M139.364 136.062L134.104 127.452C133.394 126.322 132.794 125.422 132.314 124.782C131.954 124.302 131.564 123.932 131.174 123.692C130.784 123.462 130.284 123.302 129.674 123.212C128.904 123.102 127.864 123.042 126.574 123.042H114.304C113.024 123.042 111.974 123.102 111.204 123.212C110.604 123.302 110.104 123.462 109.714 123.692C109.324 123.922 108.934 124.292 108.574 124.782C108.084 125.432 107.484 126.332 106.764 127.472L101.514 136.062H89.3241L96.8541 123.882C98.1841 121.742 99.3841 119.962 100.424 118.592C101.564 117.082 102.804 115.882 104.104 115.012C105.434 114.132 106.954 113.502 108.634 113.162C110.194 112.842 112.124 112.672 114.394 112.672H126.514C128.774 112.672 130.714 112.832 132.274 113.162C133.954 113.512 135.484 114.132 136.804 115.022C138.094 115.882 139.334 117.082 140.484 118.602C141.524 119.972 142.724 121.752 144.044 123.882L151.574 136.062H139.384H139.364ZM138.804 110.302V75.6016H149.624V110.302H138.804ZM125.694 110.302V97.2715H122.534V110.262H111.714V100.842H88.6641V90.4716H111.714C111.764 90.4716 111.604 88.3115 111.574 88.1415C111.354 87.1415 110.804 86.5215 109.824 86.2415C108.914 85.9815 107.954 85.9716 107.014 85.9716H88.6641V75.6016H106.934C109.724 75.6016 112.064 75.7715 113.884 76.1115C115.914 76.4915 117.584 77.2115 118.834 78.2415C120.134 79.3215 121.064 80.7816 121.594 82.6016C121.934 83.7516 122.174 85.1516 122.324 86.7516H125.694V75.6016H136.514V110.302H125.694Z" fill="#FFFFFF"/>
  <path d="M27.2137 60.45C24.5037 60.45 22.2737 60.2 20.5837 59.7C18.6937 59.15 17.2138 58.23 16.1838 56.97C15.1938 55.76 14.5438 54.22 14.2438 52.39C13.9738 50.8 13.8438 48.89 13.8438 46.71V36.32H24.6638V46.34C24.6638 47.41 24.7038 48.25 24.7938 48.85C24.8638 49.4 25.0038 49.66 25.0738 49.77C25.1138 49.82 25.2238 49.87 25.3138 49.89C25.5438 49.96 26.0838 50.07 27.1338 50.07H66.7637V60.44H27.2037L27.2137 60.45ZM55.9238 44.09V7.28C55.9238 2.18 58.1838 0 63.4938 0H75.4637V8.23999H69.7637C67.8437 8.23999 66.7238 9.52 66.7238 11.92V44.08H55.9238V44.09Z" fill="#FFFFFF"/>
  <path d="M13.7545 30.65L10.5545 9.72H5.07452C2.59452 9.72 0.434515 7.98 0.064515 5.67C-0.165485 4.24 0.224481 2.79999 1.15448 1.70999C2.08448 0.619991 3.4345 0 4.8645 0H18.9145L22.1145 20.93H38.6445L40.6745 9.72H29.9045C27.4245 9.72 25.2645 7.98 24.8945 5.67C24.6645 4.24 25.0645 2.79999 25.9845 1.70999C26.9145 0.619991 28.2645 0 29.6845 0H47.2545C49.8945 0 51.8845 2.39 51.4145 4.98L46.7645 30.66H13.7545V30.65Z" fill="#FFFFFF"/>
</svg>
