<svg xmlns="http://www.w3.org/2000/svg" width="22" height="22" viewBox="0 0 24 24" fill="none" role="img" aria-labelledby="manman-frozen-v3-title manman-frozen-v3-desc" data-version="2026-07-19-v3-electric" shape-rendering="geometricPrecision">
  <title id="manman-frozen-v3-title">냉동 보관</title>
  <desc id="manman-frozen-v3-desc">22픽셀 다크 태그 전용 일렉트릭 글레이셔 블루 눈송이</desc>
  <metadata>Manman Market Frozen Snowflake / Electric Glacier Blue / geometry preserved from approved v2 / 2026-07-19 v3</metadata>

  <defs>
    <!-- Premium electric-blue surface: vivid, cold, and free from mint or lavender. -->
    <linearGradient id="frozen-v3-surface" x1="5.2" y1="3.1" x2="19.2" y2="20.8" gradientUnits="userSpaceOnUse">
      <stop offset="0" stop-color="#F4FAFF"/>
      <stop offset="0.18" stop-color="#8FD0FF"/>
      <stop offset="0.43" stop-color="#38B6FF"/>
      <stop offset="0.72" stop-color="#63A5FF"/>
      <stop offset="1" stop-color="#6EA8FF"/>
    </linearGradient>
    <!-- A crisp royal-blue enamel rim creates saturation without blur or glow. -->
    <linearGradient id="frozen-v3-rim" x1="4" y1="3" x2="20" y2="21" gradientUnits="userSpaceOnUse">
      <stop offset="0" stop-color="#008CFF"/>
      <stop offset="0.48" stop-color="#126CFF"/>
      <stop offset="1" stop-color="#395CFF"/>
    </linearGradient>
    <radialGradient id="frozen-v3-tip" cx="0" cy="0" r="1" gradientTransform="translate(11.64 11.55) rotate(45) scale(2.3)" gradientUnits="userSpaceOnUse">
      <stop offset="0" stop-color="#FFFFFF"/>
      <stop offset="0.32" stop-color="#70EBFF"/>
      <stop offset="0.7" stop-color="#00A9FF"/>
      <stop offset="1" stop-color="#4165FF"/>
    </radialGradient>
  </defs>

  <!-- The approved v2 geometry is unchanged. Only the paint layers are new. -->
  <g stroke="url(#frozen-v3-rim)" stroke-linecap="round" stroke-linejoin="round">
    <path d="M12 2.75V21.25 M3.989 7.375L20.011 16.625 M3.989 16.625L20.011 7.375" stroke-width="1.9"/>
    <g stroke-width="1.5">
      <path d="M12 8.15L9.65 5.95 M12 8.15L14.35 5.95"/>
      <path d="M12 8.15L9.65 5.95 M12 8.15L14.35 5.95" transform="rotate(60 12 12)"/>
      <path d="M12 8.15L9.65 5.95 M12 8.15L14.35 5.95" transform="rotate(120 12 12)"/>
      <path d="M12 8.15L9.65 5.95 M12 8.15L14.35 5.95" transform="rotate(180 12 12)"/>
      <path d="M12 8.15L9.65 5.95 M12 8.15L14.35 5.95" transform="rotate(240 12 12)"/>
      <path d="M12 8.15L9.65 5.95 M12 8.15L14.35 5.95" transform="rotate(300 12 12)"/>
    </g>
    <g stroke-width="0.85">
      <path d="M12 5.75L10.75 4.55 M12 5.75L13.25 4.55"/>
      <path d="M12 5.75L10.75 4.55 M12 5.75L13.25 4.55" transform="rotate(60 12 12)"/>
      <path d="M12 5.75L10.75 4.55 M12 5.75L13.25 4.55" transform="rotate(120 12 12)"/>
      <path d="M12 5.75L10.75 4.55 M12 5.75L13.25 4.55" transform="rotate(180 12 12)"/>
      <path d="M12 5.75L10.75 4.55 M12 5.75L13.25 4.55" transform="rotate(240 12 12)"/>
      <path d="M12 5.75L10.75 4.55 M12 5.75L13.25 4.55" transform="rotate(300 12 12)"/>
    </g>
  </g>

  <g stroke="url(#frozen-v3-surface)" stroke-linecap="round" stroke-linejoin="round">
    <path d="M12 2.75V21.25 M3.989 7.375L20.011 16.625 M3.989 16.625L20.011 7.375" stroke-width="1.38"/>
    <g stroke-width="1.02">
      <path d="M12 8.15L9.65 5.95 M12 8.15L14.35 5.95"/>
      <path d="M12 8.15L9.65 5.95 M12 8.15L14.35 5.95" transform="rotate(60 12 12)"/>
      <path d="M12 8.15L9.65 5.95 M12 8.15L14.35 5.95" transform="rotate(120 12 12)"/>
      <path d="M12 8.15L9.65 5.95 M12 8.15L14.35 5.95" transform="rotate(180 12 12)"/>
      <path d="M12 8.15L9.65 5.95 M12 8.15L14.35 5.95" transform="rotate(240 12 12)"/>
      <path d="M12 8.15L9.65 5.95 M12 8.15L14.35 5.95" transform="rotate(300 12 12)"/>
    </g>
    <g stroke-width="0.52">
      <path d="M12 5.75L10.75 4.55 M12 5.75L13.25 4.55"/>
      <path d="M12 5.75L10.75 4.55 M12 5.75L13.25 4.55" transform="rotate(60 12 12)"/>
      <path d="M12 5.75L10.75 4.55 M12 5.75L13.25 4.55" transform="rotate(120 12 12)"/>
      <path d="M12 5.75L10.75 4.55 M12 5.75L13.25 4.55" transform="rotate(180 12 12)"/>
      <path d="M12 5.75L10.75 4.55 M12 5.75L13.25 4.55" transform="rotate(240 12 12)"/>
      <path d="M12 5.75L10.75 4.55 M12 5.75L13.25 4.55" transform="rotate(300 12 12)"/>
    </g>
  </g>

  <!-- Six jewel-like ice tips, with no center circle and no blurred glow. -->
  <g fill="url(#frozen-v3-tip)" stroke="#D7F7FF" stroke-opacity="0.9" stroke-width="0.34">
    <circle cx="12" cy="2.75" r="0.66"/>
    <circle cx="20.011" cy="7.375" r="0.66"/>
    <circle cx="20.011" cy="16.625" r="0.66"/>
    <circle cx="12" cy="21.25" r="0.66"/>
    <circle cx="3.989" cy="16.625" r="0.66"/>
    <circle cx="3.989" cy="7.375" r="0.66"/>
  </g>
</svg>
