<svg xmlns="http://www.w3.org/2000/svg" width="64" height="64" viewBox="0 0 64 64" fill="none" role="img" aria-label="우와!한 낙지볶음 400g">
  <title>우와!한 낙지볶음 400g</title>
  <g stroke="#C62828" stroke-width="2.35" stroke-linecap="round" stroke-linejoin="round">
    <path d="M20 28c0-9.5 5.4-16 12-16s12 6.5 12 16c0 7.6-4.9 12.2-12 12.2S20 35.6 20 28Z"/>
    <path d="M24.5 39.5c-3.2 2.4-6.5 4.4-10.5 4.8"/>
    <path d="M27.8 40.8c-2 3.3-4.4 6.2-7.8 8.2"/>
    <path d="M31 41.6c-.7 4.1-2.2 7.7-5 10.4"/>
    <path d="M36.2 40.8c2 3.3 4.4 6.2 7.8 8.2"/>
    <path d="M39.5 39.5c3.2 2.4 6.5 4.4 10.5 4.8"/>
    <path d="M28 26.5h.1M36 26.5h.1"/>
    <path d="M28.5 32.5c2.1 1.3 4.9 1.3 7 0"/>
    <path d="M23.5 20c2-3.2 5-5 8.5-5"/>
  </g>
</svg>
