<svg xmlns="http://www.w3.org/2000/svg" width="64" height="64" viewBox="0 0 64 64" fill="none" role="img" aria-label="대구 반고개 오징어 초무침 370g">
  <title>대구 반고개 오징어 초무침 370g</title>
  <g stroke="#D94B2B" stroke-width="2.35" stroke-linecap="round" stroke-linejoin="round">
    <path d="M32 9 19.5 27.5 32 37l12.5-9.5L32 9Z"/>
    <path d="M25 36.5c-2.3 4.7-5.7 8.4-10.2 11.1"/>
    <path d="M29.4 38.4c-1.1 5.6-3.4 10.1-6.9 13.6"/>
    <path d="M34.6 38.4c1.1 5.6 3.4 10.1 6.9 13.6"/>
    <path d="M39 36.5c2.3 4.7 5.7 8.4 10.2 11.1"/>
    <path d="M26.4 27.1h.1M37.6 27.1h.1"/>
    <path d="M25 21.6c4.4 2 9.6 2 14 0"/>
    <path d="M22.7 27.8h18.6"/>
  </g>
</svg>
